<svg width="17" height="18" viewBox="0 0 17 18" fill="none" xmlns="http://www.w3.org/2000/svg">
<g id="Rootstock">
<g id="Layer_1-2">
<g id="Group">
<path id="Vector" d="M8.10411 4.94731C9.46664 4.94731 10.5712 3.83981 10.5712 2.47364C10.5712 1.10747 9.46664 -3.05176e-05 8.10411 -3.05176e-05C6.74158 -3.05176e-05 5.63703 1.10747 5.63703 2.47364C5.63703 3.83981 6.74158 4.94731 8.10411 4.94731Z" fill="#FF931E"/>
<path id="Vector_2" d="M14.9638 10.1205C13.7832 9.4381 12.2748 9.84449 11.5942 11.0283C11.3599 11.4357 11.2546 11.8817 11.2646 12.3196C11.2894 13.4098 10.3116 13.9771 9.38195 13.4141C9.34527 13.3917 9.30765 13.3697 9.26955 13.3492C8.32939 12.8229 8.32986 11.7021 9.2705 11.1764C10.0406 10.758 10.5641 9.94 10.5641 9.0002C10.5641 8.98109 10.5631 8.96247 10.5626 8.94384L10.5636 8.94528C10.5393 7.85362 11.5194 7.28677 12.4501 7.85409C13.1954 8.30776 14.1585 8.35026 14.9667 7.88179C16.1464 7.19843 16.5503 5.6851 15.8688 4.50222C15.1872 3.31935 13.6779 2.91439 12.4982 3.59776C11.6904 4.06575 11.247 4.92198 11.2656 5.79541C11.2899 6.88468 10.3131 7.45153 9.38433 6.88946C9.0095 6.65928 8.56943 6.52652 8.09792 6.52652C7.62641 6.52652 7.18634 6.65928 6.81199 6.88898C5.88517 7.44914 4.91119 6.88325 4.93596 5.79636C4.95501 4.92103 4.50922 4.06288 3.69909 3.59537C2.51793 2.91439 1.00959 3.32221 0.330424 4.50652C-0.348738 5.69083 0.0579969 7.2032 1.23915 7.88418C2.04643 8.34978 3.00659 8.30633 3.75052 7.85409C4.67877 7.28916 5.65656 7.85553 5.63179 8.94432L5.63274 8.94289C5.63274 8.96199 5.63132 8.98109 5.63132 9.00067C5.63132 9.94095 6.15426 10.7585 6.92487 11.1768C7.86598 11.7031 7.8655 12.8253 6.92391 13.3506C6.88581 13.3711 6.84866 13.3931 6.81199 13.4156C5.88517 13.9748 4.91167 13.4084 4.93644 12.3215C4.94691 11.8817 4.84071 11.4333 4.60495 11.0245C3.92198 9.8421 2.41268 9.43906 1.23343 10.1234C0.0518054 10.8077 -0.350167 12.321 0.332329 13.5034C1.0153 14.6858 2.5246 15.0889 3.70385 14.4045C3.71909 14.3955 3.73385 14.3859 3.74909 14.3768L3.74767 14.3788C4.67687 13.8133 5.65465 14.3802 5.62941 15.4695L5.63036 15.468C5.63036 15.4881 5.62893 15.5086 5.62893 15.5287C5.63036 16.8949 6.73579 18.0014 8.0984 18C9.46101 17.9985 10.5645 16.8902 10.5631 15.5239C10.5631 15.5058 10.5621 15.4876 10.5617 15.4695L10.5626 15.4709C10.5379 14.3788 11.5185 13.8114 12.4496 14.3788L12.4482 14.3764C12.4653 14.3869 12.4815 14.3974 12.4987 14.4074C13.6793 15.0898 15.1877 14.6834 15.8683 13.4996C16.5489 12.3158 16.1436 10.8034 14.9629 10.121L14.9638 10.1205Z" fill="#FF931E"/>
</g>
</g>
</g>
</svg>
